<svg width="86" height="57" viewBox="0 0 86 57" fill="none" xmlns="http://www.w3.org/2000/svg">
<path d="M18.84 22.32H12.6L14.12 6.96H39V-3.8147e-06H7.4L4.44 29.28H17.16C30.12 29.28 34.12 33.2 34.12 39.52C34.12 45.6 29.32 49.52 20.84 49.52C14.04 49.52 7.8 47.04 4.04 43.52L0.36 49.84C5.16 54.08 13 56.64 20.92 56.64C35.24 56.64 42.12 48.88 42.12 39.2C42.12 29.28 35.56 22.32 18.84 22.32ZM85.9275 56L71.7255 36.452L84.9555 18.2H77.3415L67.7835 31.646L58.1175 18.2H50.1795L63.4635 36.722L49.4235 56H57.4155L67.5675 41.636L77.8275 56H85.9275Z" fill="#8794A5"/>
</svg>
