<svg width="77" height="65" viewBox="0 0 77 65" fill="none" xmlns="http://www.w3.org/2000/svg">
<path d="M61.4839 50.9245H63.9032C70.5806 50.9245 76 45.5992 76 39.0377C76 32.4762 70.5806 27.1509 63.9032 27.1509H61.4839M61.4839 50.9245V27.1509M61.4839 50.9245V56.2379C61.4839 56.6183 61.2419 56.963 60.879 57.1057L43.5081 63.9287C43.3992 63.9762 43.2782 64 43.1573 64H34.6169C34.0847 64 33.6613 63.584 33.6613 63.0609V60.1843C33.6613 59.6613 34.0847 59.2453 34.6169 59.2453H42.3831C42.9153 59.2453 43.3387 59.6613 43.3387 60.1843V62.8113M61.4839 27.1509V20.0189C61.4839 20.0189 61.4839 1 38.5 1C15.5161 1 15.5161 20.0189 15.5161 20.0189V30.717M13.0968 50.9245C6.41936 50.9245 1 45.5992 1 39.0377C1 32.4762 6.41936 27.1509 13.0968 27.1509H15.5161V50.9245H13.0968Z" stroke="#8794A5" stroke-width="2" stroke-miterlimit="10" stroke-linecap="round"/>
</svg>
