<svg width="65" height="76" viewBox="0 0 65 76" fill="none" xmlns="http://www.w3.org/2000/svg">
<path d="M1 76V3.72308C1 2.22308 2.22308 1 3.72308 1H60.5731C62.0846 1 63.3077 2.22308 63.3077 3.72308V76M13.6923 35.0385H50.6154M13.6923 15.4231H50.6154M13.6923 30.4231H33.3077M13.6923 39.6538H33.3077M13.6923 50.0385H33.3077M42.5385 30.4231H50.6154M42.5385 39.6538H50.6154M42.5385 50.0385H50.6154M1 74.846C1 74.846 9.49231 64.5652 12.1231 64.646C14.8231 64.7268 20.0385 74.2691 21.7462 74.2691C23.2115 74.2691 29.5577 64.496 31.3692 64.646C33.1692 64.796 37.5885 74.2576 40.9923 74.2691C44.3962 74.2806 51.2269 64.6922 52.9231 64.4614C54.1231 64.2999 63.3077 74.846 63.3077 74.846" stroke="#8794A5" stroke-width="2" stroke-miterlimit="10"/>
</svg>
