<svg width="80" height="117" viewBox="0 0 80 117" fill="none" xmlns="http://www.w3.org/2000/svg">
<path d="M40.003 112.856C52.8107 112.447 62.9743 107.108 70.1059 96.4002C74.5693 89.6989 76.42 82.1853 75.7402 74.1696C74.7789 62.8474 69.5055 53.9219 60.2732 47.3315C59.6908 46.9164 59.1338 46.5042 59.0245 45.7383C58.8972 44.8465 59.1637 44.1061 59.9468 43.6084C60.7299 43.1108 61.5564 43.1438 62.2631 43.6789C63.9715 44.9724 65.7293 46.2239 67.2895 47.6838C73.6275 53.6071 77.6926 60.8615 79.2872 69.3883C82.6412 87.3293 73.8701 104.438 58.3836 112.487C51.0904 116.278 43.3135 117.727 35.1877 116.658C22.2407 114.956 12.3241 108.404 5.5534 97.2335C1.34902 90.2939 -0.452217 82.6619 0.0957896 74.5817C0.941756 62.104 6.47872 52.1023 16.4581 44.5722C16.8953 44.2424 17.337 43.9112 17.8057 43.6279C18.8448 42.9984 20.1085 43.2712 20.7074 44.2245C21.3228 45.2017 21.0548 46.4247 20.0471 47.1112C16.1018 49.7971 12.7658 53.0945 10.1396 57.0859C5.56088 64.045 3.54853 71.701 4.30616 79.997C5.30784 90.9714 10.3777 99.7111 19.2596 106.179C24.7561 110.18 30.9698 112.316 37.7615 112.74C38.5087 112.788 39.2558 112.818 40.003 112.856Z" fill="white" fill-opacity="0.5"/>
<path d="M39.985 24.5598C33.2203 24.5883 27.7462 19.0966 27.7297 12.265C27.7118 5.52922 33.2038 0.0165316 39.9491 4.44524e-05C46.7677 -0.0179415 52.2508 5.4243 52.2672 12.229C52.2852 19.1011 46.877 24.5299 39.985 24.5598ZM40.0269 20.4201C44.5158 20.4096 48.1243 16.8124 48.1317 12.3399C48.1377 7.76847 44.5293 4.13831 39.9865 4.1473C35.5261 4.15629 31.8682 7.79844 31.8697 12.232C31.8697 16.8049 35.4812 20.4306 40.0269 20.4201Z" fill="white" fill-opacity="0.5"/>
<path d="M42.0543 31.7707C42.0543 32.2188 42.0887 32.6715 42.0468 33.1151C41.9525 34.1448 41.0706 34.9422 40.0389 34.9737C39.0897 35.0022 38.1299 34.3007 38.0281 33.3265C37.9203 32.2938 37.9068 31.2341 38.0101 30.2014C38.1119 29.1777 39.0986 28.4688 40.0794 28.5272C41.1245 28.5902 41.9645 29.3831 42.0498 30.4262C42.0857 30.8714 42.0558 31.3225 42.0558 31.7722C42.0558 31.7707 42.0558 31.7707 42.0543 31.7707Z" fill="white" fill-opacity="0.5"/>
<path d="M37.9352 45.4535C37.9367 45.0788 37.9247 44.7056 37.9382 44.3309C37.9861 43.0973 38.8395 42.255 40.0239 42.261C41.2038 42.267 42.0377 43.1228 42.0602 44.3713C42.0752 45.1447 42.0827 45.9181 42.0572 46.69C42.0213 47.7961 41.1124 48.6595 40.0254 48.658C38.9249 48.6565 38.0026 47.8111 37.9382 46.7245C37.9142 46.3033 37.9352 45.8777 37.9352 45.4535Z" fill="white" fill-opacity="0.5"/>
<path d="M39.979 57.7499C38.844 57.7574 37.9262 58.6807 37.9277 59.8168C37.9337 67.1985 37.9307 77.2541 37.9307 84.0663V84.9716C37.784 85.0196 37.7885 85.0181 37.6417 85.066C37.4725 84.8232 37.3333 84.5504 37.1297 84.3421C34.5438 81.7042 31.961 79.0647 29.3513 76.4508C28.4544 75.5515 27.1697 75.5785 26.3492 76.4313C25.5571 77.2556 25.5946 78.5042 26.466 79.393C30.4338 83.4368 34.4031 87.4776 38.3814 91.5095C39.6137 92.758 40.9912 92.5302 42.1545 90.8905C45.1716 86.6413 48.9028 82.9857 53.0533 79.8351C54.3934 78.8174 54.579 77.3381 53.5893 76.3698C52.7359 75.535 51.4976 75.5979 50.5394 76.5647C48.3264 78.7964 46.1283 81.0447 43.9198 83.2824C43.3658 83.8445 42.7999 84.3946 42.2384 84.9491C42.1501 84.9117 42.1426 84.9087 42.0542 84.8727V59.8168C42.0557 58.6702 41.1244 57.7439 39.979 57.7499Z" fill="white" fill-opacity="0.5"/>
</svg>
