<svg width="37" height="37" viewBox="0 0 37 37" fill="none" xmlns="http://www.w3.org/2000/svg">
<path fill-rule="evenodd" clip-rule="evenodd" d="M18.7815 0.539062C9.0666 0.539062 1.18959 8.35482 1.18959 17.9942C1.18959 21.291 2.1127 24.3753 3.71424 27.0073L0.538963 36.3735L10.2789 33.2808C12.8007 34.663 15.698 35.452 18.7815 35.452C28.4992 35.452 36.3734 27.6363 36.3734 17.9969C36.3762 8.35482 28.4992 0.539062 18.7815 0.539062ZM18.7815 32.5249C15.8064 32.5249 13.0371 31.6393 10.7237 30.122L5.09612 31.9097L6.92565 26.5134C5.17119 24.116 4.13686 21.1751 4.13686 17.9942C4.13686 9.98253 10.7071 3.46342 18.7815 3.46342C26.8587 3.46342 33.4261 9.98253 33.4261 17.9942C33.4289 26.0058 26.8587 32.5249 18.7815 32.5249ZM27.0311 21.9614C26.589 21.7213 24.423 20.5626 24.0171 20.3971C23.6111 20.2343 23.3136 20.1488 22.9966 20.5819C22.6797 21.0151 21.7816 21.9862 21.5091 22.2759C21.2366 22.5628 20.9725 22.5904 20.5304 22.3504C20.0911 22.1103 18.6619 21.5862 17.002 20.0054C15.7119 18.7749 14.8666 17.2824 14.6192 16.8272C14.3745 16.372 14.6164 16.1402 14.8499 15.925C15.0585 15.7319 15.3198 15.4202 15.5534 15.1691C15.7869 14.9181 15.8704 14.736 16.0316 14.4436C16.1929 14.1511 16.1289 13.889 16.0233 13.6628C15.9204 13.4366 15.103 11.2102 14.7637 10.3053C14.4245 9.40042 14.0436 9.5356 13.7822 9.52457C13.5209 9.51629 13.2234 9.46663 12.9231 9.4556C12.6228 9.44456 12.1334 9.53836 11.7052 9.96874C11.2771 10.3991 10.0759 11.4337 9.99249 13.6269C9.90908 15.8175 11.4383 17.9969 11.6524 18.3032C11.8665 18.6094 14.5719 23.3601 19.0679 25.3161C23.5666 27.2694 23.5889 26.6734 24.4147 26.6293C25.2405 26.5852 27.1117 25.6499 27.526 24.6236C27.9403 23.5973 27.9736 22.7062 27.868 22.5159C27.7679 22.3228 27.4732 22.1986 27.0311 21.9614Z" fill="#8794A5"/>
</svg>
