<svg width="75" height="75" viewBox="0 0 75 75" fill="none" xmlns="http://www.w3.org/2000/svg">
<path d="M16.961 67.4024C18.9243 65.7179 21.2244 65.7063 24.5353 65.7063H28.0669L32.1329 59.7583" stroke="#8794A5" stroke-width="2" stroke-miterlimit="10" stroke-linecap="round" stroke-linejoin="round"/>
<path d="M58.039 67.4024C56.1106 65.5669 54.1008 65.7063 50.6389 65.7063H47.1073L42.9484 59.7583" stroke="#8794A5" stroke-width="2" stroke-miterlimit="10" stroke-linecap="round" stroke-linejoin="round"/>
<path d="M37.4884 59.5142C43.994 59.5142 49.9303 50.9059 49.9303 43.5639C54.066 40.1485 50.4414 27.6136 50.4414 27.6136C52.9159 21.0964 45.9689 12.918 35.1301 19.6327C25.7086 19.6327 24.5353 23.1991 24.5353 27.6136C24.5353 27.6136 21.3755 35.1996 25.0465 43.5639C25.0465 50.9175 30.9828 59.5142 37.4884 59.5142Z" stroke="#8794A5" stroke-width="2" stroke-miterlimit="10" stroke-linecap="round" stroke-linejoin="round"/>
<path d="M73.8383 37.4999C73.8383 57.5626 57.5627 73.8382 37.5 73.8382C17.4373 73.8382 1.16171 57.5743 1.16171 37.4999C1.16171 17.4372 17.4373 1.16162 37.5 1.16162C57.5744 1.16162 73.8383 17.4372 73.8383 37.4999Z" stroke="#8794A5" stroke-width="2" stroke-miterlimit="10" stroke-linecap="round" stroke-linejoin="round"/>
</svg>
