<svg width="77" height="77" viewBox="0 0 77 77" fill="none" xmlns="http://www.w3.org/2000/svg">
<path d="M45.4122 44.4447L46.3328 44.8353L46.3339 44.8326L45.4122 44.4447ZM54.0805 23.8474L55.0023 24.2353L55.0036 24.232L54.0805 23.8474ZM51.814 21.5809L51.4294 20.6578L51.4256 20.6594L51.814 21.5809ZM31.2167 30.2625L30.8283 29.3411L30.8262 29.342L31.2167 30.2625ZM30.2757 31.2301L29.3452 30.8636L29.3438 30.8674L30.2757 31.2301ZM22.6809 50.7406L21.749 50.3778L21.7482 50.3798L22.6809 50.7406ZM24.9209 52.9806L25.2816 53.9132L25.2836 53.9125L24.9209 52.9806ZM44.4313 45.3858L44.0742 44.4517L44.0686 44.4539L44.4313 45.3858ZM32.0033 30.5893C31.6128 30.1988 30.9796 30.1988 30.5891 30.5893C30.1986 30.9799 30.1986 31.613 30.5891 32.0036L32.0033 30.5893ZM43.8965 45.311C44.287 45.7015 44.9202 45.7015 45.3107 45.311C45.7013 44.9205 45.7013 44.2873 45.3107 43.8968L43.8965 45.311ZM39.4934 1.38119C39.4934 0.828908 39.0457 0.381193 38.4934 0.381193C37.9411 0.381193 37.4934 0.828908 37.4934 1.38119H39.4934ZM37.4934 8.00839C37.4934 8.56068 37.9411 9.00839 38.4934 9.00839C39.0457 9.00839 39.4934 8.56068 39.4934 8.00839H37.4934ZM39.4934 68.9786C39.4934 68.4263 39.0457 67.9786 38.4934 67.9786C37.9411 67.9786 37.4934 68.4263 37.4934 68.9786H39.4934ZM37.4934 75.6058C37.4934 76.1581 37.9411 76.6058 38.4934 76.6058C39.0457 76.6058 39.4934 76.1581 39.4934 75.6058H37.4934ZM75.6056 39.8779C76.1579 39.8779 76.6056 39.4302 76.6056 38.8779C76.6056 38.3256 76.1579 37.8779 75.6056 37.8779V39.8779ZM68.9784 37.8779C68.4262 37.8779 67.9784 38.3256 67.9784 38.8779C67.9784 39.4302 68.4262 39.8779 68.9784 39.8779V37.8779ZM8.00827 39.8779C8.56055 39.8779 9.00827 39.4302 9.00827 38.8779C9.00827 38.3256 8.56055 37.8779 8.00827 37.8779V39.8779ZM1.38107 37.8779C0.828787 37.8779 0.381072 38.3256 0.381072 38.8779C0.381072 39.4302 0.828787 39.8779 1.38107 39.8779V37.8779ZM64.3083 12.6917C78.5639 26.9473 78.5639 50.0527 64.3083 64.3083L65.7225 65.7225C80.7592 50.6859 80.7592 26.3141 65.7225 11.2775L64.3083 12.6917ZM64.3083 64.3083C50.0527 78.5639 26.9473 78.5639 12.6917 64.3083L11.2775 65.7225C26.3141 80.7592 50.6859 80.7592 65.7225 65.7225L64.3083 64.3083ZM12.6917 64.3083C-1.5639 50.0527 -1.5639 26.9473 12.6917 12.6917L11.2775 11.2775C-3.75916 26.3141 -3.75916 50.6859 11.2775 65.7225L12.6917 64.3083ZM12.6917 12.6917C26.9473 -1.5639 50.0527 -1.5639 64.3083 12.6917L65.7225 11.2775C50.6859 -3.75916 26.3141 -3.75916 11.2775 11.2775L12.6917 12.6917ZM46.3339 44.8326L55.0022 24.2353L53.1588 23.4595L44.4905 44.0568L46.3339 44.8326ZM55.0036 24.232C55.9435 21.9763 53.6851 19.718 51.4294 20.6578L52.1987 22.504C52.8059 22.251 53.4105 22.8556 53.1575 23.4628L55.0036 24.232ZM51.4256 20.6594L30.8283 29.3411L31.6051 31.184L52.2024 22.5024L51.4256 20.6594ZM30.8262 29.342C30.1386 29.6337 29.6146 30.1798 29.3452 30.8636L31.2061 31.5966C31.2813 31.4056 31.4201 31.2625 31.6073 31.1831L30.8262 29.342ZM29.3438 30.8674L21.749 50.3778L23.6128 51.1033L31.2075 31.5929L29.3438 30.8674ZM21.7482 50.3798C20.8916 52.5946 23.0668 54.7699 25.2816 53.9132L24.5601 52.0479C23.965 52.2781 23.3834 51.6965 23.6135 51.1013L21.7482 50.3798ZM25.2836 53.9125L44.7941 46.3177L44.0686 44.4539L24.5581 52.0487L25.2836 53.9125ZM44.7885 46.3199C45.4898 46.0517 46.0397 45.5261 46.3327 44.8353L44.4916 44.0542C44.4135 44.2382 44.2742 44.3753 44.0742 44.4518L44.7885 46.3199ZM30.5891 32.0036L43.8965 45.311L45.3107 43.8968L32.0033 30.5893L30.5891 32.0036ZM37.4934 1.38119V8.00839H39.4934V1.38119H37.4934ZM37.4934 68.9786V75.6058H39.4934V68.9786H37.4934ZM75.6056 37.8779H68.9784V39.8779H75.6056V37.8779ZM8.00827 37.8779H1.38107V39.8779H8.00827V37.8779Z" fill="#8794A5"/>
</svg>
