<svg width="78" height="77" viewBox="0 0 78 77" fill="none" xmlns="http://www.w3.org/2000/svg">
<path d="M38.765 40.7527C44.5954 40.7527 51.3534 45.523 51.3534 51.3534V65.3993C51.3534 71.2297 46.583 76 40.7527 76H11.6007C5.77032 76 1 71.2297 1 65.3993V51.3534C1 45.523 7.09541 40.7527 12.9258 40.7527M54.0035 16.9011H76.53M52.6784 31.477H75.2049M57.9788 46.053H76.53M57.9788 60.629H75.2049M46.053 22.864C46.053 34.9391 37.1541 44.7279 26.1767 44.7279C15.1993 44.7279 6.30035 34.9391 6.30035 22.864C6.30035 10.7888 15.1993 1 26.1767 1C37.1541 1 46.053 10.7888 46.053 22.864Z" stroke="#8794A5" stroke-width="2" stroke-miterlimit="10" stroke-linecap="round" stroke-linejoin="round"/>
</svg>
