<svg width="34" height="38" viewBox="0 0 34 38" fill="none" xmlns="http://www.w3.org/2000/svg">
<path d="M30.0412 4.09455C28.6927 2.94116 27.1075 2.24472 25.4095 1.80154C21.1383 0.683928 16.8092 0.405902 12.4362 1.00049C10.218 1.30054 8.0769 1.88687 6.10641 2.99346C3.79192 4.29275 2.20122 6.16185 1.49669 8.75767C0.995809 10.6075 0.750873 12.4904 0.657302 14.4008C0.516947 17.2168 0.607766 20.0108 1.32881 22.758C2.16269 25.9347 3.97355 28.2773 7.08065 29.5215C7.41915 29.6564 7.73839 29.8436 8.07415 29.9839C8.38513 30.1133 8.48145 30.3198 8.4787 30.6556C8.46219 32.8523 8.47044 35.0517 8.47044 37.3475C9.28506 36.5602 9.84923 35.9821 10.2593 35.5169C11.4812 34.1351 12.6398 32.9844 13.914 31.6686C14.5608 31.0025 14.2883 31.0355 15.2901 31.052C16.4707 31.0713 18.3229 31.1181 19.4953 31.0272C21.7327 30.8511 23.9509 30.5675 26.1085 29.9179C28.8496 29.0948 31.0457 27.6276 32.1603 24.8529C32.4575 24.1151 32.741 23.3774 32.9281 22.6066C33.9987 18.194 33.8556 13.7731 32.9612 9.35777C32.5456 7.30699 31.6677 5.48468 30.0412 4.09455ZM16.4184 6.7702C16.4405 6.34628 16.6854 6.18112 17.0844 6.20039C20.4888 6.3628 23.0509 7.37581 25.0214 10.0294C26.1773 11.5847 26.7993 13.6851 26.8626 15.634C26.8626 15.923 26.8763 16.2148 26.8598 16.5038C26.8406 16.8259 26.7002 17.0737 26.3369 17.0764C25.9709 17.0792 25.792 16.881 25.7672 16.5094C25.6709 15.0724 25.393 13.674 24.8453 12.3362C23.783 9.7459 21.7437 8.35027 19.1237 7.67861C18.4302 7.49968 17.7312 7.35378 17.0156 7.29598C16.6881 7.26845 16.3937 7.19963 16.4184 6.7702ZM19.853 10.3873C19.1623 10.145 18.4605 9.9496 17.7312 9.845C17.3789 9.7927 17.1285 9.60827 17.1918 9.19536C17.2523 8.80722 17.5055 8.65307 17.8798 8.68886C20.2548 8.91458 22.1125 9.77894 23.3894 11.838C23.9866 12.8014 24.3389 14.164 24.2866 15.188C24.2481 15.912 24.138 16.0992 23.7252 16.0882C23.1225 16.0717 23.2106 15.5762 23.1638 15.2101C23.0922 14.6485 22.9711 14.1007 22.817 13.5557C22.3767 11.9866 21.3942 10.9268 19.853 10.3873ZM21.862 14.3953C21.84 14.5962 21.8373 14.7366 21.807 14.866C21.7437 15.1302 21.5813 15.2899 21.2924 15.2954C21.0006 15.3009 20.8438 15.1275 20.7667 14.8742C20.7144 14.7008 20.7007 14.5164 20.6649 14.3347C20.4805 13.3767 19.9328 12.7491 18.9806 12.4931C18.8623 12.4628 18.7412 12.4436 18.6256 12.4133C18.3256 12.3307 17.9513 12.3225 17.9376 11.8848C17.9266 11.5214 18.2045 11.3039 18.7027 11.2737C19.0412 11.2516 19.5668 11.4196 19.8723 11.5682C21.1245 12.1793 21.7079 13.0382 21.862 14.3953ZM26.8653 24.484C26.2048 25.9787 25.0765 26.9642 23.4968 27.4129C22.9243 27.5753 22.3684 27.4349 21.8455 27.212C14.6434 24.1454 9.43642 19.0832 6.48895 11.7802C6.27704 11.2516 6.1532 10.7039 6.17246 10.2001C6.17521 8.31999 7.82646 6.58027 9.63457 6.48117C10.1355 6.45364 10.5675 6.62431 10.928 6.96014C12.1995 8.15207 13.2233 9.53394 13.9691 11.1057C14.3736 11.9591 14.2058 12.5619 13.4765 13.173C13.3609 13.2721 13.2343 13.3575 13.1104 13.4483C12.1417 14.1585 11.9243 14.8825 12.3894 15.9973C13.149 17.8279 14.3847 19.2676 16.0552 20.3301C16.6854 20.732 17.3294 21.1119 18.0532 21.3239C18.7164 21.5166 19.2503 21.3101 19.6769 20.7843C19.7237 20.7238 19.7705 20.6632 19.8145 20.5999C20.742 19.3144 21.7382 19.0914 23.084 19.9255C24.2398 20.6412 25.3269 21.4588 26.3589 22.3424C27.0552 22.9425 27.2341 23.6472 26.8653 24.484Z" fill="#8794A5"/>
</svg>
