<svg width="38" height="32" viewBox="0 0 38 32" fill="none" xmlns="http://www.w3.org/2000/svg">
<path d="M34.6814 0.620503L1.51611 13.1812C-0.29751 13.7042 -0.239717 15.4962 1.10054 15.9284L9.40906 18.5215L12.5877 28.2716C12.973 29.3397 13.2895 29.7416 13.95 29.7499C14.6435 29.7581 14.9105 29.5049 15.6288 28.869C16.4736 28.0762 17.7561 26.8292 19.7871 24.8555L28.4314 31.2446C30.0221 32.1227 31.1697 31.6685 31.566 29.7664L36.9849 2.95481C37.571 0.623255 36.2033 -0.070431 34.6814 0.620503ZM10.7163 17.9269L29.6093 6.0709C30.5395 5.44603 30.8312 6.14247 30.4129 6.6242L14.7343 20.7319L13.9307 27.7734L10.7163 17.9269Z" fill="#8794A5"/>
</svg>
